<mxfile host="app.diagrams.net" modified="2024-04-06T09:30:36.611Z" agent="Mozilla/5.0 (Windows NT 10.0; Win64; x64) AppleWebKit/537.36 (KHTML, like Gecko) Chrome/123.0.0.0 Safari/537.36" etag="xEAVKozC5FoqALWX48jZ" version="24.2.2" type="github">
  <diagram name="Page-1" id="uwUwb7hcEIwoyyGC7oGu">
    <mxGraphModel dx="1050" dy="522" grid="1" gridSize="10" guides="1" tooltips="1" connect="1" arrows="1" fold="1" page="1" pageScale="1" pageWidth="850" pageHeight="1100" math="0" shadow="0">
      <root>
        <mxCell id="0" />
        <mxCell id="1" parent="0" />
        <mxCell id="HESgicdMQkOBPtPyBuGH-1" value="" style="rounded=0;whiteSpace=wrap;html=1;" vertex="1" parent="1">
          <mxGeometry x="90" y="160" width="650" height="500" as="geometry" />
        </mxCell>
        <mxCell id="HESgicdMQkOBPtPyBuGH-23" style="edgeStyle=orthogonalEdgeStyle;rounded=0;orthogonalLoop=1;jettySize=auto;html=1;entryX=0;entryY=0.5;entryDx=0;entryDy=0;endArrow=none;endFill=0;" edge="1" parent="1" source="HESgicdMQkOBPtPyBuGH-2" target="HESgicdMQkOBPtPyBuGH-5">
          <mxGeometry relative="1" as="geometry" />
        </mxCell>
        <mxCell id="HESgicdMQkOBPtPyBuGH-2" value="Patient&lt;div&gt;&lt;br&gt;&lt;/div&gt;" style="shape=umlActor;verticalLabelPosition=bottom;verticalAlign=top;html=1;outlineConnect=0;" vertex="1" parent="1">
          <mxGeometry x="40" y="250" width="30" height="60" as="geometry" />
        </mxCell>
        <mxCell id="HESgicdMQkOBPtPyBuGH-4" value="" style="edgeStyle=orthogonalEdgeStyle;rounded=0;orthogonalLoop=1;jettySize=auto;html=1;endArrow=none;endFill=0;" edge="1" parent="1" source="HESgicdMQkOBPtPyBuGH-5" target="HESgicdMQkOBPtPyBuGH-7">
          <mxGeometry relative="1" as="geometry" />
        </mxCell>
        <mxCell id="HESgicdMQkOBPtPyBuGH-5" value="&lt;div style=&quot;&quot;&gt;&lt;span style=&quot;background-color: initial;&quot;&gt;Navigate to prescription/ report section&lt;/span&gt;&lt;/div&gt;" style="ellipse;whiteSpace=wrap;html=1;verticalAlign=middle;align=center;" vertex="1" parent="1">
          <mxGeometry x="125" y="240" width="115" height="80" as="geometry" />
        </mxCell>
        <mxCell id="HESgicdMQkOBPtPyBuGH-6" value="" style="edgeStyle=orthogonalEdgeStyle;rounded=0;orthogonalLoop=1;jettySize=auto;html=1;endArrow=none;endFill=0;" edge="1" parent="1" source="HESgicdMQkOBPtPyBuGH-7" target="HESgicdMQkOBPtPyBuGH-10">
          <mxGeometry relative="1" as="geometry" />
        </mxCell>
        <mxCell id="HESgicdMQkOBPtPyBuGH-18" style="edgeStyle=orthogonalEdgeStyle;rounded=0;orthogonalLoop=1;jettySize=auto;html=1;exitX=1;exitY=0.5;exitDx=0;exitDy=0;endArrow=none;endFill=0;" edge="1" parent="1" source="HESgicdMQkOBPtPyBuGH-7" target="HESgicdMQkOBPtPyBuGH-17">
          <mxGeometry relative="1" as="geometry" />
        </mxCell>
        <mxCell id="HESgicdMQkOBPtPyBuGH-7" value="Add a new prescription/report" style="ellipse;whiteSpace=wrap;html=1;verticalAlign=middle;" vertex="1" parent="1">
          <mxGeometry x="320" y="240" width="115" height="80" as="geometry" />
        </mxCell>
        <mxCell id="HESgicdMQkOBPtPyBuGH-8" value="" style="edgeStyle=orthogonalEdgeStyle;rounded=0;orthogonalLoop=1;jettySize=auto;html=1;endArrow=none;endFill=0;" edge="1" parent="1" source="HESgicdMQkOBPtPyBuGH-10" target="HESgicdMQkOBPtPyBuGH-12">
          <mxGeometry relative="1" as="geometry" />
        </mxCell>
        <mxCell id="HESgicdMQkOBPtPyBuGH-19" style="edgeStyle=orthogonalEdgeStyle;rounded=0;orthogonalLoop=1;jettySize=auto;html=1;entryX=0;entryY=1;entryDx=0;entryDy=0;endArrow=none;endFill=0;" edge="1" parent="1" source="HESgicdMQkOBPtPyBuGH-10" target="HESgicdMQkOBPtPyBuGH-17">
          <mxGeometry relative="1" as="geometry" />
        </mxCell>
        <mxCell id="HESgicdMQkOBPtPyBuGH-10" value="Choose the file to upload" style="ellipse;whiteSpace=wrap;html=1;verticalAlign=middle;spacingLeft=5;" vertex="1" parent="1">
          <mxGeometry x="320" y="400" width="115" height="80" as="geometry" />
        </mxCell>
        <mxCell id="HESgicdMQkOBPtPyBuGH-11" style="edgeStyle=orthogonalEdgeStyle;rounded=0;orthogonalLoop=1;jettySize=auto;html=1;entryX=0;entryY=0.5;entryDx=0;entryDy=0;endArrow=none;endFill=0;" edge="1" parent="1" source="HESgicdMQkOBPtPyBuGH-12" target="HESgicdMQkOBPtPyBuGH-16">
          <mxGeometry relative="1" as="geometry" />
        </mxCell>
        <mxCell id="HESgicdMQkOBPtPyBuGH-12" value="Confirm upload and save the file" style="ellipse;whiteSpace=wrap;html=1;verticalAlign=middle;" vertex="1" parent="1">
          <mxGeometry x="320" y="550" width="115" height="80" as="geometry" />
        </mxCell>
        <mxCell id="HESgicdMQkOBPtPyBuGH-21" style="edgeStyle=orthogonalEdgeStyle;rounded=0;orthogonalLoop=1;jettySize=auto;html=1;endArrow=none;endFill=0;" edge="1" parent="1" source="HESgicdMQkOBPtPyBuGH-16" target="HESgicdMQkOBPtPyBuGH-17">
          <mxGeometry relative="1" as="geometry" />
        </mxCell>
        <mxCell id="HESgicdMQkOBPtPyBuGH-16" value="Confirm the upload" style="ellipse;whiteSpace=wrap;html=1;verticalAlign=middle;" vertex="1" parent="1">
          <mxGeometry x="570" y="550" width="115" height="80" as="geometry" />
        </mxCell>
        <mxCell id="HESgicdMQkOBPtPyBuGH-22" style="edgeStyle=orthogonalEdgeStyle;rounded=0;orthogonalLoop=1;jettySize=auto;html=1;entryX=0.5;entryY=0;entryDx=0;entryDy=0;" edge="1" parent="1" source="HESgicdMQkOBPtPyBuGH-17" target="HESgicdMQkOBPtPyBuGH-5">
          <mxGeometry relative="1" as="geometry">
            <Array as="points">
              <mxPoint x="548" y="200" />
              <mxPoint x="365" y="200" />
              <mxPoint x="365" y="220" />
              <mxPoint x="183" y="220" />
            </Array>
          </mxGeometry>
        </mxCell>
        <mxCell id="HESgicdMQkOBPtPyBuGH-17" value="User cancels upload" style="ellipse;whiteSpace=wrap;html=1;verticalAlign=middle;" vertex="1" parent="1">
          <mxGeometry x="490" y="320" width="115" height="80" as="geometry" />
        </mxCell>
        <mxCell id="HESgicdMQkOBPtPyBuGH-20" style="edgeStyle=orthogonalEdgeStyle;rounded=0;orthogonalLoop=1;jettySize=auto;html=1;entryX=0.362;entryY=0.955;entryDx=0;entryDy=0;entryPerimeter=0;endArrow=none;endFill=0;" edge="1" parent="1" source="HESgicdMQkOBPtPyBuGH-12" target="HESgicdMQkOBPtPyBuGH-17">
          <mxGeometry relative="1" as="geometry">
            <Array as="points">
              <mxPoint x="532" y="560" />
            </Array>
          </mxGeometry>
        </mxCell>
      </root>
    </mxGraphModel>
  </diagram>
</mxfile>
